<svg xmlns="http://www.w3.org/2000/svg" viewBox="0 0 1920 1080"><defs>
<linearGradient id="bg" x1="0" y1="0" x2="1" y2="1">
<stop offset="0" stop-color="#141014"/><stop offset="0.55" stop-color="#1b1218"/><stop offset="1" stop-color="#070406"/>
</linearGradient>
<radialGradient id="glow" cx="0.7" cy="0.25" r="0.8">
<stop offset="0" stop-color="#c9a24b" stop-opacity="0.22"/><stop offset="1" stop-color="#c9a24b" stop-opacity="0"/>
</radialGradient>
<filter id="b"><feGaussianBlur stdDeviation="2"/></filter>
</defs>
<rect width="1920" height="1080" fill="url(#bg)"/>
<rect width="1920" height="1080" fill="url(#glow)"/><g filter="url(#b)"><path d="M 0 139 L 0 190.2 L 60 177.1 L 120 161.2 L 180 143.7 L 240 125.8 L 300 108.9 L 360 94.2 L 420 82.8 L 480 75.6 L 540 73.1 L 600 75.4 L 660 82.4 L 720 93.7 L 780 108.2 L 840 125.1 L 900 142.9 L 960 160.5 L 1020 176.5 L 1080 189.7 L 1140 199.2 L 1200 204.2 L 1260 204.4 L 1320 199.8 L 1380 190.6 L 1440 177.7 L 1500 161.9 L 1560 144.4 L 1620 126.5 L 1680 109.5 L 1740 94.7 L 1800 83.2 L 1860 75.8 L 1920 73.1 " fill="none" stroke="#c9a24b" stroke-opacity="0.20" stroke-width="0.7"/><path d="M 0 277 L 0 260.7 L 60 276.1 L 120 291.6 L 180 306.0 L 240 318.2 L 300 327.4 L 360 332.9 L 420 334.2 L 480 331.4 L 540 324.5 L 600 314.0 L 660 300.9 L 720 286.0 L 780 270.4 L 840 255.3 L 900 241.8 L 960 230.9 L 1020 223.4 L 1080 219.9 L 1140 220.6 L 1200 225.5 L 1260 234.2 L 1320 246.0 L 1380 260.1 L 1440 275.5 L 1500 291.0 L 1560 305.4 L 1620 317.8 L 1680 327.1 L 1740 332.8 L 1800 334.3 L 1860 331.6 L 1920 324.8 " fill="none" stroke="#c9a24b" stroke-opacity="0.20" stroke-width="1.6"/><path d="M 0 468 L 0 521.1 L 60 505.2 L 120 486.6 L 180 466.6 L 240 446.7 L 300 428.3 L 360 412.9 L 420 401.6 L 480 395.2 L 540 394.1 L 600 398.6 L 660 408.1 L 720 422.1 L 780 439.5 L 840 459.0 L 900 479.1 L 960 498.4 L 1020 515.5 L 1080 529.1 L 1140 538.1 L 1200 542.0 L 1260 540.4 L 1320 533.4 L 1380 521.6 L 1440 505.9 L 1500 487.3 L 1560 467.3 L 1620 447.4 L 1680 429.0 L 1740 413.4 L 1800 401.9 L 1860 395.3 L 1920 394.1 " fill="none" stroke="#c9a24b" stroke-opacity="0.34" stroke-width="2.0"/><path d="M 0 611 L 0 656.6 L 60 657.0 L 120 654.0 L 180 647.8 L 240 638.8 L 300 627.9 L 360 615.6 L 420 603.1 L 480 591.1 L 540 580.6 L 600 572.3 L 660 566.9 L 720 564.8 L 780 566.0 L 840 570.6 L 900 578.2 L 960 588.2 L 1020 599.9 L 1080 612.4 L 1140 624.8 L 1200 636.2 L 1260 645.7 L 1320 652.7 L 1380 656.6 L 1440 657.1 L 1500 654.2 L 1560 648.1 L 1620 639.2 L 1680 628.3 L 1740 616.1 L 1800 603.5 L 1860 591.5 L 1920 580.9 " fill="none" stroke="#c9a24b" stroke-opacity="0.13" stroke-width="1.0"/><path d="M 0 762 L 0 708.7 L 60 724.1 L 120 742.4 L 180 762.1 L 240 781.9 L 300 800.1 L 360 815.5 L 420 827.0 L 480 833.7 L 540 835.0 L 600 831.0 L 660 821.9 L 720 808.3 L 780 791.3 L 840 772.2 L 900 752.3 L 960 733.1 L 1020 716.1 L 1080 702.4 L 1140 693.2 L 1200 689.0 L 1260 690.2 L 1320 696.8 L 1380 708.1 L 1440 723.5 L 1500 741.7 L 1560 761.4 L 1620 781.1 L 1680 799.4 L 1740 815.0 L 1800 826.6 L 1860 833.5 L 1920 835.1 " fill="none" stroke="#c9a24b" stroke-opacity="0.40" stroke-width="1.7"/><path d="M 0 872 L 0 912.4 L 60 938.3 L 120 959.3 L 180 973.8 L 240 980.9 L 300 979.8 L 360 970.8 L 420 954.5 L 480 932.1 L 540 905.2 L 600 875.9 L 660 846.3 L 720 818.6 L 780 794.9 L 840 776.8 L 900 765.8 L 960 762.6 L 1020 767.6 L 1080 780.2 L 1140 799.6 L 1200 824.4 L 1260 852.7 L 1320 882.4 L 1380 911.4 L 1440 937.4 L 1500 958.6 L 1560 973.4 L 1620 980.7 L 1680 980.0 L 1740 971.3 L 1800 955.2 L 1860 933.0 L 1920 906.3 " fill="none" stroke="#c9a24b" stroke-opacity="0.36" stroke-width="1.2"/><path d="M 0 1017 L 0 963.2 L 60 956.0 L 120 953.3 L 180 955.3 L 240 961.9 L 300 972.6 L 360 986.5 L 420 1002.7 L 480 1020.0 L 540 1037.0 L 600 1052.5 L 660 1065.5 L 720 1074.8 L 780 1079.9 L 840 1080.3 L 900 1076.0 L 960 1067.4 L 1020 1055.1 L 1080 1039.9 L 1140 1023.1 L 1200 1005.7 L 1260 989.3 L 1320 974.9 L 1380 963.6 L 1440 956.2 L 1500 953.3 L 1560 955.2 L 1620 961.6 L 1680 972.1 L 1740 985.9 L 1800 1002.1 L 1860 1019.3 L 1920 1036.4 " fill="none" stroke="#c9a24b" stroke-opacity="0.31" stroke-width="1.6"/></g><circle cx="740" cy="960" r="18" fill="none" stroke="#e7cd86" stroke-opacity="0.11" stroke-width="1"/><circle cx="464" cy="914" r="3" fill="none" stroke="#e7cd86" stroke-opacity="0.14" stroke-width="1"/><circle cx="1346" cy="530" r="10" fill="none" stroke="#e7cd86" stroke-opacity="0.19" stroke-width="1"/><circle cx="20" cy="607" r="12" fill="none" stroke="#e7cd86" stroke-opacity="0.23" stroke-width="1"/><circle cx="1365" cy="290" r="26" fill="none" stroke="#e7cd86" stroke-opacity="0.18" stroke-width="1"/><circle cx="45" cy="451" r="22" fill="none" stroke="#e7cd86" stroke-opacity="0.11" stroke-width="1"/><circle cx="1829" cy="315" r="22" fill="none" stroke="#e7cd86" stroke-opacity="0.20" stroke-width="1"/><circle cx="56" cy="951" r="17" fill="none" stroke="#e7cd86" stroke-opacity="0.18" stroke-width="1"/><circle cx="1440" cy="606" r="10" fill="none" stroke="#e7cd86" stroke-opacity="0.22" stroke-width="1"/><circle cx="740" cy="528" r="16" fill="none" stroke="#e7cd86" stroke-opacity="0.22" stroke-width="1"/><circle cx="712" cy="1012" r="16" fill="none" stroke="#e7cd86" stroke-opacity="0.16" stroke-width="1"/><circle cx="352" cy="600" r="21" fill="none" stroke="#e7cd86" stroke-opacity="0.06" stroke-width="1"/><circle cx="171" cy="12" r="19" fill="none" stroke="#e7cd86" stroke-opacity="0.13" stroke-width="1"/><circle cx="1003" cy="316" r="12" fill="none" stroke="#e7cd86" stroke-opacity="0.12" stroke-width="1"/><circle cx="943" cy="928" r="5" fill="none" stroke="#e7cd86" stroke-opacity="0.09" stroke-width="1"/><circle cx="987" cy="26" r="17" fill="none" stroke="#e7cd86" stroke-opacity="0.24" stroke-width="1"/><circle cx="1006" cy="28" r="18" fill="none" stroke="#e7cd86" stroke-opacity="0.20" stroke-width="1"/><circle cx="251" cy="930" r="22" fill="none" stroke="#e7cd86" stroke-opacity="0.07" stroke-width="1"/><circle cx="1340" cy="46" r="7" fill="none" stroke="#e7cd86" stroke-opacity="0.21" stroke-width="1"/><circle cx="1883" cy="831" r="14" fill="none" stroke="#e7cd86" stroke-opacity="0.06" stroke-width="1"/><circle cx="88" cy="819" r="22" fill="none" stroke="#e7cd86" stroke-opacity="0.12" stroke-width="1"/><circle cx="1046" cy="145" r="10" fill="none" stroke="#e7cd86" stroke-opacity="0.12" stroke-width="1"/><circle cx="1449" cy="190" r="20" fill="none" stroke="#e7cd86" stroke-opacity="0.08" stroke-width="1"/><circle cx="18" cy="807" r="23" fill="none" stroke="#e7cd86" stroke-opacity="0.06" stroke-width="1"/><circle cx="1726" cy="232" r="26" fill="none" stroke="#e7cd86" stroke-opacity="0.20" stroke-width="1"/><circle cx="1734" cy="804" r="7" fill="none" stroke="#e7cd86" stroke-opacity="0.25" stroke-width="1"/><circle cx="1420" cy="523" r="10" fill="none" stroke="#e7cd86" stroke-opacity="0.09" stroke-width="1"/><circle cx="22" cy="489" r="19" fill="none" stroke="#e7cd86" stroke-opacity="0.10" stroke-width="1"/><circle cx="237" cy="213" r="23" fill="none" stroke="#e7cd86" stroke-opacity="0.08" stroke-width="1"/><circle cx="795" cy="833" r="4" fill="none" stroke="#e7cd86" stroke-opacity="0.14" stroke-width="1"/><circle cx="1809" cy="955" r="17" fill="none" stroke="#e7cd86" stroke-opacity="0.11" stroke-width="1"/><circle cx="121" cy="62" r="25" fill="none" stroke="#e7cd86" stroke-opacity="0.09" stroke-width="1"/><circle cx="1366" cy="522" r="19" fill="none" stroke="#e7cd86" stroke-opacity="0.13" stroke-width="1"/><circle cx="1663" cy="442" r="6" fill="none" stroke="#e7cd86" stroke-opacity="0.14" stroke-width="1"/><circle cx="221" cy="581" r="6" fill="none" stroke="#e7cd86" stroke-opacity="0.15" stroke-width="1"/><circle cx="289" cy="818" r="10" fill="none" stroke="#e7cd86" stroke-opacity="0.08" stroke-width="1"/><circle cx="268" cy="826" r="16" fill="none" stroke="#e7cd86" stroke-opacity="0.16" stroke-width="1"/><circle cx="810" cy="378" r="14" fill="none" stroke="#e7cd86" stroke-opacity="0.20" stroke-width="1"/><circle cx="1691" cy="356" r="16" fill="none" stroke="#e7cd86" stroke-opacity="0.10" stroke-width="1"/><circle cx="873" cy="44" r="18" fill="none" stroke="#e7cd86" stroke-opacity="0.12" stroke-width="1"/><circle cx="604" cy="253" r="5" fill="none" stroke="#e7cd86" stroke-opacity="0.22" stroke-width="1"/><circle cx="1611" cy="624" r="26" fill="none" stroke="#e7cd86" stroke-opacity="0.16" stroke-width="1"/><circle cx="1094" cy="967" r="9" fill="none" stroke="#e7cd86" stroke-opacity="0.18" stroke-width="1"/><circle cx="1029" cy="273" r="18" fill="none" stroke="#e7cd86" stroke-opacity="0.17" stroke-width="1"/><circle cx="1563" cy="219" r="26" fill="none" stroke="#e7cd86" stroke-opacity="0.20" stroke-width="1"/><circle cx="119" cy="946" r="5" fill="none" stroke="#e7cd86" stroke-opacity="0.23" stroke-width="1"/><circle cx="1490" cy="107" r="19" fill="none" stroke="#e7cd86" stroke-opacity="0.12" stroke-width="1"/><circle cx="351" cy="204" r="25" fill="none" stroke="#e7cd86" stroke-opacity="0.13" stroke-width="1"/><circle cx="579" cy="801" r="5" fill="none" stroke="#e7cd86" stroke-opacity="0.10" stroke-width="1"/><circle cx="930" cy="429" r="25" fill="none" stroke="#e7cd86" stroke-opacity="0.05" stroke-width="1"/><circle cx="0" cy="453" r="13" fill="none" stroke="#e7cd86" stroke-opacity="0.14" stroke-width="1"/><circle cx="1276" cy="416" r="4" fill="none" stroke="#e7cd86" stroke-opacity="0.11" stroke-width="1"/><circle cx="1311" cy="46" r="15" fill="none" stroke="#e7cd86" stroke-opacity="0.19" stroke-width="1"/><circle cx="301" cy="455" r="9" fill="none" stroke="#e7cd86" stroke-opacity="0.16" stroke-width="1"/><circle cx="1731" cy="548" r="19" fill="none" stroke="#e7cd86" stroke-opacity="0.06" stroke-width="1"/><circle cx="1254" cy="1045" r="9" fill="none" stroke="#e7cd86" stroke-opacity="0.15" stroke-width="1"/><circle cx="985" cy="715" r="7" fill="none" stroke="#e7cd86" stroke-opacity="0.21" stroke-width="1"/><circle cx="1532" cy="353" r="6" fill="none" stroke="#e7cd86" stroke-opacity="0.09" stroke-width="1"/><circle cx="188" cy="765" r="26" fill="none" stroke="#e7cd86" stroke-opacity="0.11" stroke-width="1"/><circle cx="1338" cy="198" r="7" fill="none" stroke="#e7cd86" stroke-opacity="0.06" stroke-width="1"/><rect width="1920" height="1080" fill="black" opacity="0.18"/></svg>