<svg xmlns="http://www.w3.org/2000/svg" viewBox="0 0 1920 1080"><defs>
<linearGradient id="bg" x1="0" y1="0" x2="1" y2="1">
<stop offset="0" stop-color="#06121c"/><stop offset="0.55" stop-color="#0a1a26"/><stop offset="1" stop-color="#02080d"/>
</linearGradient>
<radialGradient id="glow" cx="0.7" cy="0.25" r="0.8">
<stop offset="0" stop-color="#c9a24b" stop-opacity="0.22"/><stop offset="1" stop-color="#c9a24b" stop-opacity="0"/>
</radialGradient>
<filter id="b"><feGaussianBlur stdDeviation="2"/></filter>
</defs>
<rect width="1920" height="1080" fill="url(#bg)"/>
<rect width="1920" height="1080" fill="url(#glow)"/><g filter="url(#b)"><path d="M 0 127 L 0 47.6 L 60 52.7 L 120 63.3 L 180 78.6 L 240 97.5 L 300 118.6 L 360 140.3 L 420 161.0 L 480 179.2 L 540 193.5 L 600 203.0 L 660 206.8 L 720 204.7 L 780 196.9 L 840 183.9 L 900 166.7 L 960 146.6 L 1020 125.0 L 1080 103.6 L 1140 83.9 L 1200 67.4 L 1260 55.3 L 1320 48.5 L 1380 47.5 L 1440 52.4 L 1500 62.8 L 1560 77.9 L 1620 96.7 L 1680 117.7 L 1740 139.4 L 1800 160.2 L 1860 178.5 L 1920 193.1 " fill="none" stroke="#c9a24b" stroke-opacity="0.15" stroke-width="0.8"/><path d="M 0 317 L 0 372.6 L 60 357.7 L 120 339.9 L 180 320.3 L 240 300.6 L 300 282.0 L 360 266.0 L 420 253.8 L 480 246.3 L 540 244.0 L 600 247.0 L 660 255.3 L 720 268.1 L 780 284.6 L 840 303.4 L 900 323.2 L 960 342.6 L 1020 360.1 L 1080 374.4 L 1140 384.4 L 1200 389.5 L 1260 389.2 L 1320 383.6 L 1380 373.0 L 1440 358.3 L 1500 340.6 L 1560 321.1 L 1620 301.3 L 1680 282.7 L 1740 266.6 L 1800 254.2 L 1860 246.5 L 1920 243.9 " fill="none" stroke="#c9a24b" stroke-opacity="0.20" stroke-width="1.4"/><path d="M 0 459 L 0 389.4 L 60 389.3 L 120 394.4 L 180 404.3 L 240 418.2 L 300 435.2 L 360 453.9 L 420 472.9 L 480 491.0 L 540 506.7 L 600 518.8 L 660 526.6 L 720 529.3 L 780 526.8 L 840 519.4 L 900 507.4 L 960 491.9 L 1020 474.0 L 1080 454.9 L 1140 436.2 L 1200 419.1 L 1260 405.0 L 1320 394.9 L 1380 389.5 L 1440 389.2 L 1500 394.2 L 1560 403.9 L 1620 417.6 L 1680 434.5 L 1740 453.1 L 1800 472.2 L 1860 490.3 L 1920 506.1 " fill="none" stroke="#c9a24b" stroke-opacity="0.13" stroke-width="1.3"/><path d="M 0 589 L 0 635.8 L 60 652.0 L 120 663.6 L 180 669.6 L 240 669.7 L 300 663.8 L 360 652.3 L 420 636.2 L 480 616.6 L 540 595.0 L 600 572.9 L 660 552.0 L 720 533.9 L 780 519.8 L 840 510.8 L 900 507.6 L 960 510.5 L 1020 519.1 L 1080 532.9 L 1140 550.8 L 1200 571.6 L 1260 593.7 L 1320 615.4 L 1380 635.1 L 1440 651.5 L 1500 663.2 L 1560 669.5 L 1620 669.8 L 1680 664.1 L 1740 652.9 L 1800 636.9 L 1860 617.4 L 1920 595.8 " fill="none" stroke="#c9a24b" stroke-opacity="0.24" stroke-width="0.6"/><path d="M 0 779 L 0 744.9 L 60 752.1 L 120 761.3 L 180 771.8 L 240 782.9 L 300 793.6 L 360 803.3 L 420 811.2 L 480 816.7 L 540 819.4 L 600 819.1 L 660 815.9 L 720 809.9 L 780 801.7 L 840 791.8 L 900 780.9 L 960 769.9 L 1020 759.6 L 1080 750.7 L 1140 743.9 L 1200 739.7 L 1260 738.4 L 1320 740.1 L 1380 744.7 L 1440 751.8 L 1500 760.9 L 1560 771.4 L 1620 782.4 L 1680 793.2 L 1740 802.9 L 1800 810.9 L 1860 816.5 L 1920 819.3 " fill="none" stroke="#c9a24b" stroke-opacity="0.38" stroke-width="2.2"/><path d="M 0 863 L 0 786.7 L 60 786.8 L 120 792.6 L 180 803.6 L 240 818.9 L 300 837.5 L 360 858.0 L 420 878.9 L 480 898.6 L 540 915.6 L 600 928.8 L 660 937.1 L 720 939.9 L 780 937.1 L 840 928.7 L 900 915.5 L 960 898.5 L 1020 878.8 L 1080 857.9 L 1140 837.4 L 1200 818.8 L 1260 803.5 L 1320 792.5 L 1380 786.8 L 1440 786.7 L 1500 792.3 L 1560 803.1 L 1620 818.3 L 1680 836.8 L 1740 857.2 L 1800 878.1 L 1860 897.9 L 1920 915.1 " fill="none" stroke="#c9a24b" stroke-opacity="0.48" stroke-width="1.5"/><path d="M 0 1054 L 0 1108.3 L 60 1110.2 L 120 1107.9 L 180 1101.6 L 240 1091.8 L 300 1079.2 L 360 1064.7 L 420 1049.5 L 480 1034.6 L 540 1021.1 L 600 1010.1 L 660 1002.3 L 720 998.3 L 780 998.4 L 840 1002.7 L 900 1010.7 L 960 1022.0 L 1020 1035.6 L 1080 1050.6 L 1140 1065.8 L 1200 1080.1 L 1260 1092.6 L 1320 1102.1 L 1380 1108.1 L 1440 1110.2 L 1500 1108.0 L 1560 1101.9 L 1620 1092.2 L 1680 1079.7 L 1740 1065.3 L 1800 1050.1 L 1860 1035.1 L 1920 1021.6 " fill="none" stroke="#c9a24b" stroke-opacity="0.30" stroke-width="1.1"/></g><circle cx="487" cy="267" r="14" fill="none" stroke="#e7cd86" stroke-opacity="0.25" stroke-width="1"/><circle cx="970" cy="134" r="22" fill="none" stroke="#e7cd86" stroke-opacity="0.05" stroke-width="1"/><circle cx="1715" cy="960" r="11" fill="none" stroke="#e7cd86" stroke-opacity="0.17" stroke-width="1"/><circle cx="392" cy="963" r="20" fill="none" stroke="#e7cd86" stroke-opacity="0.23" stroke-width="1"/><circle cx="975" cy="813" r="23" fill="none" stroke="#e7cd86" stroke-opacity="0.24" stroke-width="1"/><circle cx="474" cy="310" r="19" fill="none" stroke="#e7cd86" stroke-opacity="0.14" stroke-width="1"/><circle cx="31" cy="131" r="8" fill="none" stroke="#e7cd86" stroke-opacity="0.22" stroke-width="1"/><circle cx="1210" cy="87" r="12" fill="none" stroke="#e7cd86" stroke-opacity="0.22" stroke-width="1"/><circle cx="1686" cy="551" r="18" fill="none" stroke="#e7cd86" stroke-opacity="0.18" stroke-width="1"/><circle cx="1884" cy="793" r="25" fill="none" stroke="#e7cd86" stroke-opacity="0.22" stroke-width="1"/><circle cx="874" cy="808" r="26" fill="none" stroke="#e7cd86" stroke-opacity="0.23" stroke-width="1"/><circle cx="910" cy="274" r="14" fill="none" stroke="#e7cd86" stroke-opacity="0.07" stroke-width="1"/><circle cx="278" cy="1013" r="9" fill="none" stroke="#e7cd86" stroke-opacity="0.11" stroke-width="1"/><circle cx="1376" cy="893" r="23" fill="none" stroke="#e7cd86" stroke-opacity="0.24" stroke-width="1"/><circle cx="862" cy="1038" r="15" fill="none" stroke="#e7cd86" stroke-opacity="0.18" stroke-width="1"/><circle cx="1093" cy="834" r="21" fill="none" stroke="#e7cd86" stroke-opacity="0.10" stroke-width="1"/><circle cx="689" cy="58" r="11" fill="none" stroke="#e7cd86" stroke-opacity="0.27" stroke-width="1"/><circle cx="1374" cy="334" r="25" fill="none" stroke="#e7cd86" stroke-opacity="0.24" stroke-width="1"/><circle cx="1109" cy="213" r="25" fill="none" stroke="#e7cd86" stroke-opacity="0.19" stroke-width="1"/><circle cx="1296" cy="546" r="12" fill="none" stroke="#e7cd86" stroke-opacity="0.08" stroke-width="1"/><circle cx="987" cy="990" r="5" fill="none" stroke="#e7cd86" stroke-opacity="0.13" stroke-width="1"/><circle cx="136" cy="840" r="7" fill="none" stroke="#e7cd86" stroke-opacity="0.05" stroke-width="1"/><circle cx="874" cy="850" r="6" fill="none" stroke="#e7cd86" stroke-opacity="0.06" stroke-width="1"/><circle cx="1258" cy="92" r="15" fill="none" stroke="#e7cd86" stroke-opacity="0.21" stroke-width="1"/><circle cx="677" cy="571" r="19" fill="none" stroke="#e7cd86" stroke-opacity="0.10" stroke-width="1"/><circle cx="73" cy="634" r="3" fill="none" stroke="#e7cd86" stroke-opacity="0.07" stroke-width="1"/><circle cx="1228" cy="64" r="9" fill="none" stroke="#e7cd86" stroke-opacity="0.26" stroke-width="1"/><circle cx="597" cy="539" r="7" fill="none" stroke="#e7cd86" stroke-opacity="0.20" stroke-width="1"/><circle cx="1777" cy="695" r="13" fill="none" stroke="#e7cd86" stroke-opacity="0.13" stroke-width="1"/><circle cx="283" cy="773" r="15" fill="none" stroke="#e7cd86" stroke-opacity="0.15" stroke-width="1"/><circle cx="1065" cy="790" r="23" fill="none" stroke="#e7cd86" stroke-opacity="0.24" stroke-width="1"/><circle cx="1394" cy="210" r="22" fill="none" stroke="#e7cd86" stroke-opacity="0.26" stroke-width="1"/><circle cx="1661" cy="1038" r="11" fill="none" stroke="#e7cd86" stroke-opacity="0.14" stroke-width="1"/><circle cx="1475" cy="486" r="12" fill="none" stroke="#e7cd86" stroke-opacity="0.15" stroke-width="1"/><circle cx="528" cy="1067" r="12" fill="none" stroke="#e7cd86" stroke-opacity="0.17" stroke-width="1"/><circle cx="23" cy="850" r="21" fill="none" stroke="#e7cd86" stroke-opacity="0.12" stroke-width="1"/><circle cx="771" cy="272" r="4" fill="none" stroke="#e7cd86" stroke-opacity="0.19" stroke-width="1"/><circle cx="680" cy="954" r="14" fill="none" stroke="#e7cd86" stroke-opacity="0.20" stroke-width="1"/><circle cx="722" cy="571" r="26" fill="none" stroke="#e7cd86" stroke-opacity="0.16" stroke-width="1"/><circle cx="1207" cy="124" r="24" fill="none" stroke="#e7cd86" stroke-opacity="0.05" stroke-width="1"/><circle cx="756" cy="514" r="23" fill="none" stroke="#e7cd86" stroke-opacity="0.15" stroke-width="1"/><circle cx="1213" cy="655" r="8" fill="none" stroke="#e7cd86" stroke-opacity="0.13" stroke-width="1"/><circle cx="640" cy="756" r="22" fill="none" stroke="#e7cd86" stroke-opacity="0.11" stroke-width="1"/><circle cx="1612" cy="772" r="6" fill="none" stroke="#e7cd86" stroke-opacity="0.22" stroke-width="1"/><circle cx="55" cy="269" r="12" fill="none" stroke="#e7cd86" stroke-opacity="0.16" stroke-width="1"/><circle cx="1338" cy="551" r="10" fill="none" stroke="#e7cd86" stroke-opacity="0.12" stroke-width="1"/><circle cx="1388" cy="891" r="23" fill="none" stroke="#e7cd86" stroke-opacity="0.20" stroke-width="1"/><circle cx="208" cy="659" r="13" fill="none" stroke="#e7cd86" stroke-opacity="0.20" stroke-width="1"/><circle cx="459" cy="897" r="8" fill="none" stroke="#e7cd86" stroke-opacity="0.07" stroke-width="1"/><circle cx="1519" cy="446" r="21" fill="none" stroke="#e7cd86" stroke-opacity="0.15" stroke-width="1"/><circle cx="460" cy="247" r="4" fill="none" stroke="#e7cd86" stroke-opacity="0.17" stroke-width="1"/><circle cx="390" cy="645" r="21" fill="none" stroke="#e7cd86" stroke-opacity="0.09" stroke-width="1"/><circle cx="570" cy="696" r="23" fill="none" stroke="#e7cd86" stroke-opacity="0.07" stroke-width="1"/><circle cx="1268" cy="707" r="21" fill="none" stroke="#e7cd86" stroke-opacity="0.08" stroke-width="1"/><circle cx="597" cy="1061" r="11" fill="none" stroke="#e7cd86" stroke-opacity="0.15" stroke-width="1"/><circle cx="1298" cy="853" r="12" fill="none" stroke="#e7cd86" stroke-opacity="0.14" stroke-width="1"/><circle cx="838" cy="72" r="16" fill="none" stroke="#e7cd86" stroke-opacity="0.08" stroke-width="1"/><circle cx="9" cy="977" r="22" fill="none" stroke="#e7cd86" stroke-opacity="0.27" stroke-width="1"/><circle cx="889" cy="454" r="4" fill="none" stroke="#e7cd86" stroke-opacity="0.21" stroke-width="1"/><circle cx="1713" cy="1062" r="12" fill="none" stroke="#e7cd86" stroke-opacity="0.17" stroke-width="1"/><rect width="1920" height="1080" fill="black" opacity="0.18"/></svg>